<svg fill="none" height="40" viewBox="0 0 125 40" width="125" xmlns="http://www.w3.org/2000/svg" xmlns:xlink="http://www.w3.org/1999/xlink"><linearGradient id="a" gradientUnits="userSpaceOnUse" x1="17" x2="17" y1="36.8657" y2="3.731"><stop offset="0" stop-color="#fa233b"/><stop offset="1" stop-color="#fb5c74"/></linearGradient><g fill="#000"><path d="m44.7757 22.1733h-4.3893l-1.0534 3.1124h-1.8594l4.1584-11.5157h1.9311l4.1584 11.5157h-1.8915zm-3.9349-1.4361h3.4795l-1.7158-5.0517h-.0479z"/><path d="m56.6905 21.0887c0 2.6101-1.3965 4.2863-3.5033 4.2863-1.0893.057-2.1151-.5134-2.6413-1.4683h-.0396v4.1575h-1.7241v-11.1734h1.668v1.3974h.0322c.5492-.9503 1.5769-1.5207 2.6735-1.4848 2.1307 0 3.5346 1.6836 3.5346 4.2853zm-1.771 0c0-1.6992-.8776-2.817-2.219-2.817-1.3165 0-2.2025 1.1408-2.2025 2.817 0 1.6919.886 2.8253 2.2025 2.8253 1.3404 0 2.219-1.1095 2.219-2.8253z"/><path d="m65.9249 21.0887c0 2.6101-1.3965 4.2863-3.5033 4.2863-1.0893.057-2.1151-.5134-2.6414-1.4683h-.0395v4.1575h-1.7241v-11.1734h1.668v1.3974h.0322c.5492-.9503 1.5768-1.5207 2.6735-1.4848 2.1298 0 3.5346 1.6836 3.5346 4.2853zm-1.7719 0c0-1.6992-.8777-2.817-2.219-2.817-1.3166 0-2.2025 1.1408-2.2025 2.817 0 1.6919.8859 2.8253 2.2025 2.8253 1.3413 0 2.219-1.1095 2.219-2.8253z"/><path d="m67.3135 13.77h1.7231v11.5166h-1.7231z"/><path d="m78.008 22.821c-.392 1.6412-1.9366 2.7388-3.6156 2.5695-2.4417 0-3.9588-1.6367-3.9588-4.2614 0-2.634 1.5244-4.3415 3.887-4.3415 2.3221 0 3.783 1.5962 3.783 4.1418v.5907h-5.9294v.1039c-.0552.6247.1601 1.2439.5925 1.6993s1.0387.7029 1.6661.6789c.8363.0782 1.6248-.402 1.9394-1.1812zm-5.8264-2.5061h4.198c.0312-.5621-.173-1.1114-.564-1.5153-.391-.4048-.9329-.6274-1.495-.6154-.5667-.0037-1.1123.2198-1.5134.62-.402.3993-.6265.943-.6256 1.5107z"/><path d="m92.9721 25.2866v-8.476h-.0561l-3.4721 8.3886h-1.3248l-3.4794-8.3886h-.0552v8.476h-1.6284v-11.5166h2.0663l3.7278 9.0896h.0644l3.7187-9.0896h2.0755v11.5166z"/><path d="m103.787 25.2865h-1.651v-1.4444h-.041c-.454 1.012-1.495 1.6284-2.6013 1.5401-.8234.0479-1.6257-.2695-2.1933-.8685-.5676-.5989-.8427-1.4168-.7507-2.2356v-5.3875h1.7241v5.0527c0 1.2769.6062 1.955 1.7952 1.955.565.0184 1.112-.2107 1.496-.6275.383-.4167.565-.9807.499-1.5428v-4.8365h1.724z"/><path d="m108.689 16.7949c1.859 0 3.192 1.0304 3.232 2.5144h-1.619c-.073-.7425-.702-1.1969-1.66-1.1969-.935 0-1.557.4305-1.557 1.0856 0 .5023.415.8372 1.286 1.0534l1.412.3266c1.692.4075 2.33 1.0304 2.33 2.2595 0 1.5161-1.436 2.5539-3.487 2.5539-1.979 0-3.313-1.0138-3.439-2.5466h1.707c.121.8069.766 1.2374 1.812 1.2374 1.029 0 1.677-.4232 1.677-1.0938 0-.518-.32-.7977-1.197-1.0212l-1.501-.3671c-1.516-.3671-2.282-1.1408-2.282-2.3055-.002-1.4858 1.33-2.4997 3.286-2.4997z"/><path d="m113.455 14.68c-.008-.4076.231-.7793.606-.9403.374-.161.808-.08 1.098.2061.291.2861.379.7185.224 1.0957-.156.3763-.524.6219-.93.6201-.547.0037-.992-.4352-.998-.9816zm.136 2.2107h1.724v8.3959h-1.724z"/><path d="m122.74 19.7795c-.156-.9522-1.017-1.6256-1.979-1.5483-1.324 0-2.202 1.1095-2.202 2.8575 0 1.7875.885 2.8658 2.219 2.8658.95.0947 1.811-.5667 1.963-1.5088h1.659c-.214 1.8059-1.829 3.1114-3.639 2.9458-2.394 0-3.959-1.6367-3.959-4.3019 0-2.6091 1.564-4.301 3.942-4.301 1.823-.1546 3.438 1.173 3.639 2.9918z"/></g><g clip-rule="evenodd" fill-rule="evenodd"><path d="m34 13.6335c0-.4069 0-.8132 0-1.2189 0-.34 0-.68-.0153-1.02-.0096-.7479-.0755-1.49407-.1972-2.2321-.1256-.73921-.3611-1.45548-.6987-2.125-.6853-1.34588-1.7791-2.44026-3.1246-3.1263-.6686-.33681-1.3837-.57228-2.1216-.6987-.7386-.1216-1.4853-.18752-2.2338-.1972-.34-.0102-.68-.0136-1.02-.0153h-15.1725c-.34 0-.68 0-1.02.0153-.75019.00942-1.49861.07534-2.2389.1972-.73828.12594-1.45345.36204-2.1216.7004-1.3441.685-2.43717 1.77747-3.1229 3.1212-.337556.66893-.573066 1.38463-.6987 2.1233-.121603.73861-.187522 1.4853-.1972 2.2338-.0102.34-.0136.68-.0153 1.02-.00113333.4114-.0017.8188-.0017 1.2223v12.7279 1.2189c0 .34 0 .68.0153 1.02.009601.7485.0755205 1.4952.1972 2.2338.125634.7387.361144 1.4544.6987 2.1233.68573 1.3437 1.7788 2.4362 3.1229 3.1212.66857.3373 1.38359.5734 2.1216.7004.73854.1219 1.48531.1872 2.2338.1955.34.0102.68.0136 1.02.0153h1.2189 13.94c.34 0 .68 0 1.02-.0153.7485-.0081 1.4953-.0735 2.2338-.1955.7387-.1262 1.4544-.3623 2.1233-.7004 1.3431-.6858 2.4354-1.7781 3.1212-3.1212.3381-.6689.5742-1.3846.7004-2.1233.1219-.7385.1872-1.4853.1955-2.2338.0102-.34.0136-.68.0153-1.02 0-.4063 0-.8126 0-1.2189v-12.7279z" fill="url(#a)"/><path d="m24.0359 8.19343c-.0816 0-.8126.136-.901.1547l-10.1048 2.03997c-.2305.0397-.4474.1368-.6307.2822-.1903.1694-.3114.4031-.34.6562-.0154.1127-.0228.2263-.0221.34v12.648c.0273.2935-.0524.5869-.2244.8262-.1904.2132-.4534.3478-.7378.3774l-.6596.1326c-.6356.1049-1.26118.2636-1.86996.4743-.41688.1494-.79422.3918-1.1033.7089-1.00829 1.0865-.94825 2.7837.1343 3.7961.34323.319.76805.5367 1.2274.629.51.102 1.0387.0663 1.82236-.0918.4156-.0774.815-.2246 1.1815-.4352.3686-.2168.6858-.5108.9299-.8619.2432-.3506.4116-.7476.4947-1.1662.0828-.4117.1204-.8313.1122-1.2512v-10.9667c0-.5882.17-.7429.6409-.85 0 0 8.3997-1.7 8.7924-1.7697.5457-.1054.8041.051.8041.6239v7.48c0 .2958 0 .5967-.2057.85-.1899.2126-.4525.3466-.7361.3757l-.6613.1343c-.6355.1047-1.261.2628-1.87.4726-.4163.1504-.7934.3927-1.1033.7089-.4964.5159-.7624 1.211-.7371 1.9265.0254.7155.3398 1.3901.8714 1.8696.3442.3166.7688.5324 1.2274.6239.51.102 1.0404.0646 1.8241-.0918.4147-.0758.8136-.2212 1.1798-.4301.3685-.2162.6857-.5097.9299-.8602.243-.3508.4113-.7477.4947-1.1662.0772-.4129.1091-.833.0952-1.2529v-16.04457c-.0017-.5814-.3077-.9401-.8551-.8925z" fill="#fff"/></g></svg>