<svg enable-background="new 0 0 125 40" height="40" viewBox="0 0 125 40" width="125" xmlns="http://www.w3.org/2000/svg"><g fill="#00a0ee"><path d="m82.161 15.085c2.709 0 4.916 2.207 4.916 4.915s-2.207 4.916-4.916 4.916c-2.708 0-4.915-2.208-4.915-4.916 0-2.708 2.207-4.915 4.915-4.915m0-3.211c-4.514 0-8.124 3.611-8.124 8.126 0 4.514 3.61 8.125 8.124 8.125 4.515 0 8.126-3.611 8.126-8.125 0-4.515-3.712-8.126-8.126-8.126z"/><path d="m31.703 12.375v1.305c-3.511-2.809-8.627-2.308-11.437 1.203-2.809 3.512-2.308 8.626 1.204 11.437 3.009 2.408 7.323 2.408 10.233 0v1.305h3.009v-15.25zm-4.916 12.641c-2.809 0-5.016-2.308-5.016-5.016s2.307-5.016 5.016-5.016c2.809 0 5.016 2.307 5.016 5.016 0 2.809-2.207 5.016-5.016 5.016z"/><path d="m114.463 12.375v1.305c-3.51-2.809-8.627-2.308-11.436 1.203-2.808 3.512-2.307 8.626 1.204 11.437 3.009 2.408 7.322 2.408 10.231 0v1.305h3.011v-15.25zm-4.915 12.641c-2.809 0-5.016-2.308-5.016-5.016s2.308-5.016 5.016-5.016c2.81 0 5.017 2.307 5.017 5.016-.001 2.809-2.208 5.016-5.017 5.016z"/><path d="m95.604 13.379c-1.706 1.104-3.21 3.11-3.21 6.621v7.725h3.21v-7.725c0-5.016 5.216-4.815 5.216-4.815v-3.209c0-.102-2.808-.202-5.216 1.403z"/><path d="m50.161 13.479c-3.611-2.708-8.727-2.005-11.336 1.606-1.103 1.404-1.604 3.11-1.604 4.915v7.625h3.21v-7.625c0-2.708 2.207-4.915 4.916-4.915s4.915 2.207 4.915 4.915v7.625h3.21v-7.625c-.101-2.508-1.305-4.915-3.311-6.521z"/><path d="m70.323 7.46c-.801 0-1.504.703-1.504 1.505v4.714c-3.511-2.809-8.627-2.308-11.436 1.203-2.809 3.512-2.307 8.626 1.205 11.437 3.009 2.408 7.322 2.408 10.231 0v1.305h3.01v-20.164zm-6.419 17.556c-2.809 0-5.016-2.308-5.016-5.016 0-2.809 2.308-5.016 5.016-5.016 2.809 0 5.016 2.307 5.016 5.016 0 2.809-2.207 5.016-5.016 5.016z"/><path d="m8.43 11.874c-1.907 0-3.712.602-5.117 1.806v-1.305h-3.009v20.164h1.505c.803 0 1.504-.701 1.504-1.504v-4.715c3.511 2.809 8.627 2.307 11.436-1.203 2.809-3.512 2.308-8.628-1.204-11.437-1.404-1.204-3.21-1.806-5.115-1.806zm-.201 13.142c-2.809 0-5.016-2.308-5.016-5.016s2.308-5.016 5.016-5.016c2.709 0 5.016 2.307 5.016 5.016.1 2.809-2.207 5.016-5.016 5.016z"/><path d="m121.888 13.179c-1.605 0-2.81-1.305-2.81-2.809 0-1.505 1.304-2.809 2.81-2.809 1.604 0 2.809 1.304 2.809 2.809-.001 1.504-1.305 2.809-2.809 2.809zm0-5.317c-1.406 0-2.51 1.104-2.51 2.508s1.104 2.508 2.51 2.508c1.403 0 2.507-1.104 2.507-2.508s-1.104-2.508-2.507-2.508zm.8 4.113-.801-1.304h-.603v1.304h-.401v-3.211h1.304c.501 0 1.004.402 1.004.903v.101c0 .501-.302.903-.803 1.003l.902 1.305zm-.6-2.91h-.903v1.204h.903c.301 0 .601-.301.601-.602-.001-.301-.3-.602-.601-.602z"/></g></svg>