<svg enable-background="new 0 0 125 40" height="40" viewBox="0 0 125 40" width="125" xmlns="http://www.w3.org/2000/svg"><path d="m27.956 28.139c.333-.539.159-1.244-.38-1.576-4.85-2.965-10.864-3.654-17.875-2.051-.618.139-1.002.754-.863 1.371.141.617.757 1.006 1.374.863 6.406-1.463 11.847-.867 16.17 1.773.538.333 1.244.163 1.574-.38z" fill="#fff"/><path d="m32.761 17.308c.484-.815.215-1.874-.601-2.359-6.83-4.053-17.639-4.435-24.139-2.461-.91.276-1.422 1.237-1.147 2.146.275.911 1.237 1.424 2.146 1.148 5.666-1.72 15.45-1.395 21.383 2.127.815.487 1.875.218 2.358-.601z" fill="#fff"/><path d="m29.744 21.158c-5.683-3.493-13.995-4.474-20.679-2.446-.758.231-1.186 1.03-.959 1.79.229.756 1.032 1.184 1.789.955 5.852-1.775 13.402-.895 18.348 2.145.674.414 1.409.205 1.979-.473v.002c.572-.676.197-1.559-.478-1.973z" fill="#fff"/><g fill="#24cf5f"><path d="m19.378 1.596c-10.274-.001-18.336 8.238-18.336 18.403s8.274 18.405 18.438 18.405c10.165 0 18.353-8.238 18.353-18.405.001-10.164-8.181-18.403-18.455-18.403zm-9.168 25.15c-.616.143-1.233-.244-1.374-.863-.139-.615.246-1.233.864-1.371 7.012-1.604 13.024-.914 17.875 2.051.541.332.713 1.037.38 1.576h.001c-.33.541-1.036.713-1.576.381-4.323-2.641-9.764-3.237-16.17-1.774zm20.013-3.617c-.571.676-1.306.887-1.981.473-4.944-3.039-12.491-3.922-18.342-2.145-.76.229-1.565-.199-1.794-.957-.228-.758.199-1.558.957-1.789 6.684-2.027 15-1.045 20.682 2.445.674.416 1.049 1.299.478 1.973zm.179-5.219c-5.932-3.522-15.717-3.848-21.383-2.127-.909.276-1.871-.237-2.146-1.148-.275-.909.237-1.87 1.147-2.146 6.5-1.974 17.309-1.592 24.139 2.461.817.485 1.085 1.543.601 2.359-.482.818-1.542 1.087-2.358.601z"/><path d="m51.302 18.586c-3.176-.758-3.742-1.29-3.742-2.408 0-1.056.995-1.767 2.474-1.767 1.432 0 2.853.541 4.343 1.651.045.034.103.047.157.039.055-.01.104-.04.138-.085l1.551-2.187c.062-.09.047-.216-.041-.284-1.772-1.423-3.768-2.114-6.102-2.114-3.431 0-5.829 2.06-5.829 5.005 0 3.16 2.069 4.279 5.641 5.141 3.042.701 3.553 1.289 3.553 2.338 0 1.16-1.037 1.885-2.707 1.885-1.856 0-3.368-.625-5.059-2.09-.042-.039-.101-.055-.154-.051-.055.006-.107.029-.143.074l-1.738 2.068c-.073.086-.062.215.02.289 1.968 1.76 4.391 2.688 7.003 2.688 3.698 0 6.086-2.021 6.086-5.146.006-2.641-1.574-4.102-5.442-5.043z"/><path d="m65.117 15.452c-1.602 0-2.917.63-4 1.925v-1.455c0-.116-.094-.209-.21-.209h-2.844c-.115 0-.207.093-.207.209v16.174c0 .115.091.209.207.209h2.844c.116 0 .21-.096.21-.209v-5.104c1.084 1.215 2.4 1.809 4 1.809 2.979 0 5.994-2.291 5.994-6.674.004-4.381-3.01-6.675-5.99-6.675zm2.684 6.675c0 2.23-1.375 3.791-3.344 3.791-1.945 0-3.413-1.631-3.413-3.791s1.467-3.788 3.413-3.788c1.938 0 3.344 1.594 3.344 3.788z"/><path d="m78.836 15.452c-3.834 0-6.84 2.953-6.84 6.722 0 3.73 2.984 6.652 6.793 6.652 3.85 0 6.861-2.943 6.861-6.699 0-3.743-2.992-6.675-6.814-6.675zm0 10.486c-2.039 0-3.578-1.639-3.578-3.812 0-2.183 1.486-3.765 3.531-3.765 2.053 0 3.602 1.639 3.602 3.812 0 2.182-1.496 3.765-3.555 3.765z"/><path d="m93.84 15.711h-3.133v-3.201c0-.115-.092-.208-.205-.208h-2.844c-.117 0-.211.093-.211.208v3.202h-1.367c-.115 0-.207.094-.207.209v2.445c0 .115.092.208.207.208h1.367v6.329c0 2.555 1.273 3.852 3.783 3.852 1.021 0 1.867-.211 2.664-.662.067-.038.106-.109.106-.181v-2.33c0-.072-.035-.141-.098-.178-.062-.039-.141-.041-.203-.01-.547.275-1.078.402-1.67.402-.914 0-1.322-.414-1.322-1.342v-5.879h3.133c.115 0 .207-.093.207-.209v-2.445c.006-.116-.086-.209-.203-.209z"/><path d="m104.75 15.724v-.393c0-1.157.443-1.672 1.438-1.672.594 0 1.068.117 1.604.294.066.021.135.011.188-.028.055-.04.086-.104.086-.169v-2.396c0-.092-.061-.173-.148-.201-.562-.167-1.283-.339-2.363-.339-2.627 0-4.018 1.479-4.018 4.278v.602h-1.367c-.115 0-.207.094-.207.209v2.458c0 .116.092.209.207.209h1.367v9.76c0 .115.094.209.207.209h2.846c.115 0 .209-.094.209-.209v-9.76h2.656l4.07 9.758c-.463 1.023-.916 1.227-1.537 1.227-.5 0-1.027-.148-1.568-.441-.051-.029-.111-.033-.166-.016s-.1.059-.123.111l-.965 2.113c-.045.102-.008.219.09.27 1.006.545 1.916.779 3.039.779 2.102 0 3.26-.979 4.285-3.611l4.938-12.756c.021-.064.016-.136-.023-.193-.039-.058-.102-.09-.17-.09h-2.965c-.088 0-.166.056-.195.139l-3.035 8.666-3.322-8.672c-.031-.082-.109-.134-.195-.134h-4.861v-.001h-.002z"/><path d="m98.426 15.711h-2.846c-.113 0-.209.094-.209.209v12.414c0 .115.096.209.209.209h2.846c.113 0 .207-.094.207-.209v-12.413c0-.114-.092-.209-.207-.21z"/><path d="m97.018 10.059c-1.127 0-2.041.912-2.041 2.041 0 1.127.914 2.041 2.041 2.041s2.041-.914 2.041-2.041c0-1.129-.914-2.041-2.041-2.041z"/><path d="m121.945 19.703c-1.127 0-2.002-.904-2.002-2.003 0-1.097.887-2.012 2.012-2.012 1.127 0 2.002.905 2.002 2.002 0 1.098-.887 2.013-2.012 2.013zm.01-3.816c-1.025 0-1.801.815-1.801 1.812 0 .999.771 1.803 1.791 1.803 1.025 0 1.803-.815 1.803-1.813s-.773-1.802-1.793-1.802zm.445 2.009.566.792h-.479l-.51-.726h-.439v.726h-.398v-2.101h.936c.49 0 .811.249.811.669.002.345-.199.555-.484.64zm-.339-.948h-.521v.665h.521c.262 0 .418-.128.418-.333-.002-.218-.159-.332-.418-.332z"/></g></svg>