<svg enable-background="new 0 0 125 40" height="40" viewBox="0 0 125 40" width="125" xmlns="http://www.w3.org/2000/svg"><path d="m11.982 31.578c6.398 0 11.579-5.179 11.579-11.577 0-6.399-5.181-11.579-11.579-11.579s-11.578 5.18-11.578 11.579c0 6.398 5.18 11.577 11.578 11.577z" fill="#f03"/><path d="m11.982 13.894c3.365 0 6.094 2.742 6.094 6.094 0 3.353-2.742 6.093-6.094 6.093s-6.094-2.74-6.094-6.093c0-3.352 2.742-6.094 6.094-6.094zm0-.941c-3.881 0-7.035 3.152-7.035 7.034s3.153 7.035 7.035 7.035 7.035-3.153 7.035-7.035-3.153-7.034-7.035-7.034z" fill="#fff"/><path d="m9.757 23.418 5.922-3.417-5.922-3.418v6.849z" fill="#fff"/><g fill="#212121"><path d="m83.772 12.197h4.199l1.113 5.936c.45 2.397.941 5.948 1.113 7.497h.013c.186-1.549.609-5.087 1.087-7.51l1.152-5.909h4.173v16.003h-2.542v-6.969c0-2.093.158-4.716.278-7.1h-.028l-.383 2.093-2.385 11.962h-2.743l-2.396-11.962-.359-2.093h-.025c.119 2.384.265 4.994.265 7.1v6.969h-2.544v-16.003z"/><path d="m98.053 25.3v-8.797h2.638v8.517c0 1.036.225 1.484.768 1.484s.809-.185 1.1-.94v-9.061h2.638v11.697h-2.227l-.159-1.576c-.317 1.113-.968 1.801-2.291 1.801-1.325 0-2.452-1.126-2.452-3.125z"/><path d="m106.229 24.637 2.225-.039c-.119 1.298.346 2.038 1.126 2.038.782 0 1.021-.462 1.021-1.072 0-.607-.742-1.35-2.001-2.331-1.511-1.139-2.398-1.96-2.398-3.842 0-1.881 1.114-3.086 3.354-3.086 2.238 0 3.351 1.179 3.179 4.026l-2.213.094c-.014-1.749-.265-2.266-1.007-2.266s-1.007.357-1.007 1.007c0 .967.517 1.391 1.379 2.026 2.066 1.523 3.02 2.226 3.02 4.146 0 1.922-1.179 3.153-3.457 3.153s-3.564-1.416-3.219-3.828v-.026z"/><path d="m113.792 13.787c0-1.246.464-1.59 1.417-1.59.955 0 1.405.397 1.405 1.59s-.424 1.63-1.405 1.63c-.98 0-1.417-.371-1.417-1.63zm.133 2.716h2.557v11.697h-2.557z"/><path d="m117.74 23.153v-1.642c0-3.856 1.047-5.234 3.603-5.234 2.558 0 1.868.252 2.385.77.517.516.94 1.947.782 3.762l-2.291.159c0-2.173-.186-2.875-.915-2.875s-.941.742-.941 3.087v2.265c0 2.425.133 3.166.915 3.166s1.007-.662 1.007-2.729l2.306.119c.053 1.815-.226 2.994-.968 3.685-.517.489-1.271.727-2.385.727-2.609 0-3.51-1.271-3.51-5.246z"/><path d="m28.781 28.228v-5.009l-3.02-11.021h2.623l1.086 4.888c.252 1.127.503 2.743.623 3.326h.013c.118-.557.358-2.174.623-3.299l1.125-4.901h2.623l-3.06 11.021v5.008h-2.637v-.013z"/><path d="m40.876 21.895v.94c0 4.16-.914 5.577-3.643 5.577s-3.643-1.443-3.643-5.577v-.94c0-4.252 1.086-5.604 3.696-5.604s3.59 1.417 3.59 5.604zm-2.676-.901c0-2.252-.211-2.901-.954-2.901s-.994.649-.994 2.901v2.689c0 2.331.225 2.914.954 2.914s.994-.595.994-2.914z"/><path d="m41.976 25.3v-8.797h2.636v8.517c0 1.036.226 1.484.769 1.484s.809-.185 1.1-.94v-9.061h2.637v11.697h-2.228l-.159-1.576c-.317 1.113-.967 1.801-2.292 1.801-1.324 0-2.451-1.126-2.451-3.125z"/><path d="m50.971 28.2v-13.751h-2.609v-2.252h7.842v2.252h-2.61v13.751h-2.636z"/><path d="m55.475 25.3v-8.797h2.637v8.517c0 1.036.225 1.484.769 1.484.543 0 .808-.185 1.099-.94v-9.061h2.637v11.697h-2.226l-.16-1.576c-.318 1.113-.966 1.801-2.292 1.801s-2.451-1.126-2.451-3.125z"/><path d="m71.387 21.444v1.562c0 3.776-.796 5.366-2.57 5.366-1.775 0-1.896-.479-2.306-1.272l-.173 1.113h-2.292v-16.6h2.544v3.353c0 .874.013 1.747-.053 2.808h.026c.438-.874 1.192-1.483 2.372-1.483 1.695 0 2.476 1.112 2.476 5.166zm-2.691 0c0-2.702-.225-3.299-.967-3.299-.741 0-.968.438-1.166 1.271v6.452c.225.45.636.635 1.047.635.795 0 1.073-.833 1.073-3.376v-1.697z"/><path d="m79.374 23.191h-4.358v.638c0 2.066.052 2.769.901 2.769.848 0 1.033-.649 1.046-1.987l2.318.106c.172 2.543-1.139 3.67-3.378 3.67s-3.511-1.776-3.511-4.995v-2.039c0-3.392.901-5.062 3.59-5.062s3.392 1.417 3.392 4.94zm-4.358-2.356v.888h1.735v-.888c0-2.159-.08-2.769-.874-2.769-.796 0-.861.636-.861 2.769z"/></g></svg>