<svg enable-background="new 0 0 125 40" height="40" viewBox="0 0 125 40" width="125" xmlns="http://www.w3.org/2000/svg"><path d="m42.993 24.411c-1.258.05-2.456-.541-3.18-1.571l1.178-1.09c.506.64 1.283 1.004 2.098.985.971 0 1.431-.281 1.431-.934s-.282-.801-1.831-1.171c-1.549-.371-2.564-.875-2.564-2.58 0-1.571 1.312-2.527 2.964-2.527 1.141-.014 2.228.484 2.965 1.356l-1.186 1.208c-.458-.559-1.139-.884-1.86-.89-.875 0-1.171.394-1.171.778 0 .541.356.741 1.653 1.037 1.297.297 2.743.786 2.743 2.663-.016 1.647-1.002 2.736-3.24 2.736z"/><path d="m51.324 24.411c-2.142 0-3.603-1.661-3.603-4.448s1.482-4.447 3.625-4.447c2.142 0 3.595 1.652 3.595 4.447-.001 2.795-1.49 4.448-3.617 4.448zm0-7.198c-1.142 0-1.905.971-1.905 2.728s.793 2.75 1.942 2.75c1.148 0 1.897-.948 1.897-2.728 0-1.779-.8-2.728-1.949-2.728z"/><path d="m60.262 24.411c-1.971 0-3.306-1.408-3.306-3.928v-4.826h1.638v4.826c0 1.378.629 2.223 1.667 2.223s1.69-.845 1.69-2.223v-4.826h1.639v4.826c.022 2.505-1.215 3.928-3.328 3.928z"/><path d="m71.32 24.292-3.009-4.713c-.2-.319-.467-.742-.578-.972v1.883 3.802h-1.586v-8.635h1.563l2.928 4.566c.2.319.467.741.57.971 0-.318 0-1.402 0-1.883v-3.654h1.616v8.635z"/><path d="m77.812 24.292h-2.444v-8.635h2.564c2.343 0 4.068 1.156 4.068 4.321.001 3.032-2.081 4.314-4.188 4.314zm.061-6.959h-.867v5.285h.807c1.721 0 2.506-1.06 2.506-2.639-.001-1.772-.712-2.646-2.446-2.646z"/><path d="m89.116 18.177c-.253-.589-.842-.963-1.481-.941-1.231 0-1.935 1.134-1.935 2.742 0 1.609.74 2.736 1.941 2.736.711.002 1.351-.434 1.607-1.098l1.402.867c-.511 1.229-1.741 2.002-3.068 1.928-2.119 0-3.603-1.713-3.603-4.448 0-2.734 1.483-4.447 3.64-4.447 1.291-.049 2.476.715 2.964 1.912z"/><path d="m92.985 24.292v-8.635h1.646v6.931h4.105v1.704z"/><path d="m103.191 24.411c-2.142 0-3.602-1.661-3.602-4.448s1.481-4.447 3.624-4.447 3.596 1.652 3.596 4.447c.001 2.795-1.482 4.448-3.618 4.448zm0-7.198c-1.149 0-1.912.971-1.912 2.728s.8 2.75 1.942 2.75c1.141 0 1.912-.971 1.912-2.728s-.801-2.728-1.949-2.728z"/><path d="m112.146 24.411c-1.979 0-3.313-1.408-3.313-3.928v-4.826h1.638v4.826c0 1.378.631 2.223 1.676 2.223s1.682-.845 1.682-2.223v-4.826h1.639v4.826c.012 2.505-1.225 3.928-3.322 3.928z"/><path d="m120.558 24.344h-2.445v-8.634h2.557c2.343 0 4.076 1.156 4.076 4.313-.001 3.039-2.084 4.321-4.188 4.321zm.058-6.961h-.865v5.286h.807c1.72 0 2.506-1.067 2.506-2.646-.001-1.765-.72-2.64-2.448-2.64z"/><path d="m33.454 23.003c-.146 2.481-2.221 4.409-4.707 4.373h-11.326c-.517-.004-.934-.424-.934-.941v-12.164c-.013-.423.234-.812.623-.979.986-.546 2.106-.803 3.231-.741 1.348-.004 2.672.357 3.832 1.045 1.813 1.063 3.103 2.833 3.558 4.885.389-.117.794-.174 1.201-.171 2.497-.001 4.522 2.021 4.525 4.519 0 .059-.001.116-.003.174z"/><path d="m15.05 15.035c0-.205-.166-.37-.371-.37s-.371.165-.371.37c-.426 3.993-.426 8.021 0 12.015 0 .204.167.371.371.371s.371-.167.371-.371c.607-4.121.363-7.88 0-12.015z"/><path d="m12.826 16.458c-.058-.204-.271-.323-.476-.265-.128.036-.228.137-.265.265-.408 3.523-.408 7.083 0 10.608.041.204.24.336.445.295.149-.029.266-.146.296-.295.456-3.523.456-7.088 0-10.608z"/><path d="m10.491 16.094c0-.205-.166-.371-.37-.371-.205 0-.371.166-.371.371-.438 3.641-.438 7.323 0 10.962 0 .205.166.371.371.371s.37-.166.37-.371c.456-3.639.456-7.321 0-10.962z"/><path d="m8.208 17.162c-.059-.204-.271-.323-.477-.265-.128.037-.228.137-.265.265-.422 3.29-.422 6.621 0 9.911.041.205.241.338.445.296.149-.03.266-.146.296-.296.454-3.289.454-6.623.001-9.911z"/><path d="m5.896 19.629c-.041-.204-.24-.336-.445-.296-.149.03-.266.147-.296.296-.548 2.55-.289 4.893 0 7.458 0 .205.166.371.371.371s.371-.166.371-.371c.311-2.609.577-4.899-.001-7.458z"/><path d="m3.606 19.223c-.072-.205-.296-.312-.501-.241-.112.04-.2.128-.24.241-.411 2.483-.411 5.017 0 7.5.042.205.241.338.445.297.149-.03.266-.146.296-.297.452-2.48.452-5.021 0-7.5z"/><path d="m1.293 20.513c-.071-.206-.296-.313-.5-.241-.112.039-.201.127-.24.241-.396 1.626-.396 3.325 0 4.951 0 .204.166.37.371.37s.37-.166.37-.37c.474-1.616.474-3.335-.001-4.951z"/></svg>