<svg enable-background="new 0 0 125 40" height="40" viewBox="0 0 125 40" width="125" xmlns="http://www.w3.org/2000/svg"><g fill="#211f1f"><path d="m26.517 10.244h2.377v5.691h.042c.646-1.077 2-1.746 3.209-1.746 3.397 0 5.044 2.674 5.044 5.93 0 2.997-1.458 5.823-4.647 5.823-1.459 0-3.023-.367-3.731-1.834h-.041v1.531h-2.252v-15.395zm5.314 5.886c-1.999 0-3.021 1.574-3.021 3.945 0 2.244 1.105 3.925 3.021 3.925 2.168 0 2.981-1.984 2.981-3.925-.001-2.026-1.023-3.945-2.981-3.945"/><path d="m55.594 14.189c-1.418 0-2.646.754-3.355 1.984l-.042-.043v-1.639h-2.251v9.495c-1.356.014-1.482.014-1.586.014-.438 0-.562-.236-.562-.842v-5.735c0-2.349-2.208-3.234-4.314-3.234-2.376 0-4.731.841-4.897 3.709h2.376c.104-1.208 1.041-1.768 2.375-1.768.96 0 2.23.238 2.23 1.509 0 1.444-1.522 1.251-3.23 1.574-2.001.237-4.147.691-4.147 3.472 0 2.178 1.751 3.256 3.688 3.256 1.272 0 2.794-.412 3.733-1.357.186 1.012.875 1.357 1.833 1.357.396 0 1.146-.152 4.862-.281v-.021h.016v-6.576c0-1.64 1.021-2.933 2.605-2.933 1.396 0 2.064.755 2.106 2.502v7.007h2.375v-7.654c.006-2.501-1.475-3.796-3.811-3.796m-10.171 7.698c0 1.551-1.627 2.113-2.668 2.113-.835 0-2.19-.324-2.19-1.424 0-1.293.919-1.682 1.94-1.854 1.041-.193 2.188-.172 2.918-.668z"/><path d="m71.645 25.639h-2.252v-1.51h-.041c-.625 1.271-1.98 1.812-3.335 1.812-3.396 0-5.044-2.609-5.044-5.952 0-4.032 2.314-5.801 4.67-5.801 1.354 0 2.854.518 3.585 1.746h.04v-5.691h2.377zm-5.315-1.639c2.124 0 3.021-2.004 3.021-3.947 0-2.457-1.146-3.923-2.979-3.923-2.23 0-3.022 2.047-3.022 4.054 0 1.918.916 3.816 2.98 3.816"/><path d="m81.088 18.222c-.188-1.359-1.147-2.092-2.459-2.092-1.232 0-2.96.668-2.96 4.054 0 1.855.79 3.816 2.854 3.816 1.375 0 2.335-.949 2.564-2.547h2.375c-.438 2.893-2.166 4.488-4.939 4.488-3.377 0-5.23-2.479-5.23-5.758 0-3.363 1.772-5.994 5.313-5.994 2.502 0 4.627 1.293 4.856 4.032h-2.371-.003z"/><path d="m108.186 14.189c-1.562 0-2.584.712-3.376 1.854-.479-1.271-1.71-1.854-3.022-1.854-1.711 0-2.605.754-3.315 1.854h-.063v-1.552h-2.252v9.495c-1.354.014-1.48.014-1.584.014-.438 0-.563-.236-.563-.842v-5.735c0-2.349-2.209-3.234-4.314-3.234-2.376 0-4.73.841-4.899 3.709h2.377c.104-1.208 1.043-1.768 2.376-1.768.96 0 2.231.238 2.231 1.509 0 1.444-1.522 1.251-3.232 1.574-2.001.237-4.146.691-4.146 3.472 0 2.178 1.75 3.256 3.688 3.256 1.273 0 2.794-.412 3.73-1.357.188 1.012.878 1.357 1.837 1.357.395 0 1.146-.152 4.828-.281v-.021h.05v-6.619c0-1.855 1.125-2.89 2.354-2.89 1.438 0 1.896.819 1.896 2.351v7.158h2.376v-6.533c0-1.877.688-2.976 2.295-2.976 1.853 0 1.958 1.23 1.958 2.997v6.512h2.375v-7.697c.002-2.719-1.332-3.753-3.603-3.753m-16.552 7.698c0 1.551-1.625 2.113-2.666 2.113-.836 0-2.191-.324-2.191-1.424 0-1.293.918-1.682 1.939-1.854 1.042-.193 2.189-.172 2.918-.668z"/><path d="m113.938 14.491h2.253v1.509h.041c.667-1.271 1.96-1.811 3.335-1.811 3.397 0 5.044 2.674 5.044 5.93 0 2.997-1.46 5.823-4.647 5.823-1.375 0-2.855-.52-3.605-1.746h-.042v5.561h-2.378v-15.266zm5.315 1.639c-2 0-3.021 1.574-3.021 3.945 0 2.244 1.104 3.925 3.021 3.925 2.169 0 2.983-1.984 2.983-3.925 0-2.026-1.024-3.945-2.983-3.945"/></g><path d="m18.21 25.605h-17.821l8.322-15.361h17.821z" fill="#6399a8"/></svg>